<svg id="SvgjsSvg1001" width="288" height="288" xmlns="http://www.w3.org/2000/svg" version="1.1" xmlns:xlink="http://www.w3.org/1999/xlink" xmlns:svgjs="http://svgjs.com/svgjs"><defs id="SvgjsDefs1002"></defs><g id="SvgjsG1008"><svg xmlns="http://www.w3.org/2000/svg" aria-hidden="true" data-bbox="0 0 595.2 218.8" data-type="color" enable-background="new 0 0 595.3 219" viewBox="0 0 595.2 218.8" width="288" height="288"><defs><linearGradient id="a" x1="487.71" x2="12643.03" y1="-21861.158" y2="-21861.117" gradientTransform="matrix(.02835 0 0 -.02835 0 -540.507)" gradientUnits="userSpaceOnUse"><stop offset="0" stop-color="#ffffff" class="stopColorfff svgShape"></stop><stop offset="1" stop-color="#ffffff" stop-opacity="0" class="stopColorfff svgShape"></stop></linearGradient><linearGradient id="d" x1="487.71" x2="12643.03" y1="-22692.137" y2="-22692.096" gradientTransform="matrix(.02835 0 0 -.02835 0 -540.507)" gradientUnits="userSpaceOnUse"><stop offset="0" stop-color="#ffffff" class="stopColorfff svgShape"></stop><stop offset="1" stop-color="#ffffff" stop-opacity="0" class="stopColorfff svgShape"></stop></linearGradient><linearGradient id="g" x1="487.71" x2="12643.03" y1="-23523.148" y2="-23523.107" gradientTransform="matrix(.02835 0 0 -.02835 0 -540.507)" gradientUnits="userSpaceOnUse"><stop offset="0" stop-color="#ffffff" class="stopColorfff svgShape"></stop><stop offset="1" stop-color="#ffffff" stop-opacity="0" class="stopColorfff svgShape"></stop></linearGradient><linearGradient id="j" x1="487.71" x2="12643.03" y1="-25185.168" y2="-25185.127" gradientTransform="matrix(.02835 0 0 -.02835 0 -540.507)" gradientUnits="userSpaceOnUse"><stop offset="0" stop-color="#ffffff" class="stopColorfff svgShape"></stop><stop offset="1" stop-color="#ffffff" stop-opacity="0" class="stopColorfff svgShape"></stop></linearGradient><filter id="b" width="386.6" height="1.2" x="0" y="78.6" filterUnits="userSpaceOnUse"><feColorMatrix values="1 0 0 0 0 0 1 0 0 0 0 0 1 0 0 0 0 0 1 0"></feColorMatrix></filter></defs><mask id="c" width="386.6" height="1.2" x="0" y="78.6" maskUnits="userSpaceOnUse"><path fill="url(&quot;#a&quot;)" fill-rule="evenodd" d="M386.9 78.3V80H-.3v-1.7h387.2z" clip-rule="evenodd" filter="url(#b)"></path></mask><path fill="#0a0101" fill-rule="evenodd" d="M0 78.6h386.6v1.2H0v-1.2z" clip-rule="evenodd" data-color="1" mask="url(#c)" class="colorFEFEFE svgShape"></path><defs><filter id="e" width="386.6" height="1.2" x="0" y="102.2" filterUnits="userSpaceOnUse"><feColorMatrix values="1 0 0 0 0 0 1 0 0 0 0 0 1 0 0 0 0 0 1 0"></feColorMatrix></filter></defs><mask id="f" width="386.6" height="1.2" x="0" y="102.2" maskUnits="userSpaceOnUse"><path fill="url(&quot;#d&quot;)" fill-rule="evenodd" d="M386.9 101.9v1.7H-.3v-1.7h387.2z" clip-rule="evenodd" filter="url(#e)"></path></mask><path fill="#0a0101" fill-rule="evenodd" d="M0 102.2h386.6v1.1H0v-1.1z" clip-rule="evenodd" data-color="1" mask="url(#f)" class="colorFEFEFE svgShape"></path><defs><filter id="h" width="386.6" height="1.2" x="0" y="125.7" filterUnits="userSpaceOnUse"><feColorMatrix values="1 0 0 0 0 0 1 0 0 0 0 0 1 0 0 0 0 0 1 0"></feColorMatrix></filter></defs><mask id="i" width="386.6" height="1.2" x="0" y="125.7" maskUnits="userSpaceOnUse"><path fill="url(&quot;#g&quot;)" fill-rule="evenodd" d="M386.9 125.4v1.7H-.3v-1.7h387.2z" clip-rule="evenodd" filter="url(#h)"></path></mask><path fill="#0a0101" fill-rule="evenodd" d="M0 125.7h386.6v1.2H0v-1.2z" clip-rule="evenodd" data-color="1" mask="url(#i)" class="colorFEFEFE svgShape"></path><defs><filter id="k" width="386.6" height="1.2" x="0" y="172.8" filterUnits="userSpaceOnUse"><feColorMatrix values="1 0 0 0 0 0 1 0 0 0 0 0 1 0 0 0 0 0 1 0"></feColorMatrix></filter></defs><mask id="l" width="386.6" height="1.2" x="0" y="172.8" maskUnits="userSpaceOnUse"><path fill="url(&quot;#j&quot;)" fill-rule="evenodd" d="M386.9 172.5v1.7H-.3v-1.7h387.2z" clip-rule="evenodd" filter="url(#k)"></path></mask><path fill="#0a0101" fill-rule="evenodd" d="M0 172.8h386.6v1.2H0v-1.2z" clip-rule="evenodd" data-color="1" mask="url(#l)" class="colorFEFEFE svgShape"></path><path fill="#080000" d="M0 147.3h292.5c4.3-.9 8.3-2.7 12.2-4.5 5.4-2.5 10.7-5 17.1-5 6.1 0 9.9 6.8 13.7 13.6l.4.7c3.9 1.9 8.2 3.2 14.5 1.3 6-1.8 11.5-7.9 16.2-14 1.2-3 2.4-6.1 3.5-9 4.1-10.6 7.6-19.7 10.5-19.7 2.6 0 5.9 11.5 9.6 26 .8 1.4 1.6 2.9 2.4 4.4 5.8 10.4 12.4 22.3 18.1 22.3 4.2 0 7.3-32 10.8-67.6C426 50.7 430.9 0 441 0c8.9 0 13.4 52.7 17.3 106.3l.6 4.4c3.5 24.5 6.7 47.2 12.2 47.2 6.1 0 11.1-10.7 15.8-21.3 4.5-36.6 8.8-71.5 14.4-71.5 5.8 0 10.8 23.7 15.8 47.3 4.9 23 9.8 45.9 14.3 45.9 4.7 0 9-4.2 13.4-8.6 1-1 2-2 3.1-3 4-8.9 8.3-16.5 13.6-17 6.7-.6 11.7 6 16.5 12.5 3 4 6 7.9 9.3 10 1.4.6 2.8 1 4.4 1.1 1.2.1 2.4.1 3.5.1v1.4c-1.2 0-2.4 0-3.6-.1-5.3-.4-9.6-3.7-13.9-7-4.8-3.7-9.7-7.5-16.1-7-5.5.5-10.1 4.5-14.4 8.7-.6 1.4-1.3 2.9-1.9 4.3-4.5 10.5-8.9 20.6-14 20.6-5.3 0-10.3-14.6-15.2-29.2-4.9-14.5-9.9-29-14.9-29-4.5 0-8.5 8.3-12.6 17.4l-.4 3.5c-4.9 40-10.1 81.8-17.1 81.8-6.3 0-9.6-46.5-13.2-96.7-.7-9.6-1.4-19.4-2.1-29-3.5-22.5-7.8-42.2-14.9-42.2-9.2 0-14.1 44.1-18.5 83.3-3.5 31.6-6.7 60.1-11.7 60.1-6.3 0-13-26.4-18.9-49.6-.4-1.4-.7-2.8-1.1-4.2-4.2-7.5-7.9-13.9-10.2-13.9-2.6 0-6.1 4.6-10.3 10.1-1.5 2-3.1 4.1-4.8 6.1-4.4 10.4-9.4 19.7-15 21.4-6.5 1.9-10.4-3.8-14.2-10.5-1.2-.5-2.4-1.1-3.5-1.7-3.4-1.7-6.7-3.5-11.1-3.5L0 148.8v-1.5zm294.4 0h27.4c4.7 0 8.3 1.8 11.8 3.6.6.3 1.1.6 1.7.8l-.1-.2c-3.7-6.6-7.4-13.4-13.3-13.4-6.3 0-11.6 2.5-16.9 5-3.6 1.7-7 3.2-10.6 4.2zm73.1-9.1c.6-.8 1.2-1.5 1.8-2.3 4.4-5.8 8.1-10.6 11.4-10.6 2.5 0 5.5 4.3 8.8 10.1-3.5-13.6-6.6-24.2-8.8-24.2-2.7 0-6.1 8.9-10.2 19.4-1 2.5-2 5.1-3 7.6zm91.2-25.9c.2 3.3.5 6.6.7 9.9 3.5 49.5 6.7 95.4 11.8 95.4 5.8 0 10.8-40.4 15.6-79.5-4.6 10.3-9.5 20.3-15.6 20.3-5.8-.1-9.1-22-12.5-46.1zm90.1 33.8c3.8-3.4 7.9-6.3 12.7-6.7 7-.6 12.1 3.4 17.1 7.3 2.2 1.7 4.4 3.5 6.8 4.7-2.7-2.3-5.1-5.5-7.6-8.8-4.8-6.4-9.7-12.8-16.2-12.3-4.9.4-9 7.4-12.8 15.8zm-2.4 4.1-.6.6c-4.7 4.6-9.1 9-14.4 9-5.7 0-10.7-23.5-15.7-47.1-4.9-23.1-9.8-46.2-14.4-46.2-4.1 0-8.2 31.4-12.4 65.6 4-8.8 7.9-16.4 12.4-16.4 5.3 0 10.3 14.7 15.3 29.3 4.9 14.4 9.8 28.9 14.8 28.9 4.8 0 9.1-9.9 13.6-20.3.4-1.1.9-2.2 1.4-3.4zm-90.9-61.9C452 42.2 447.8 1.4 441 1.4c-8.7 0-13.6 50-18 94.5-3.5 36.2-6.7 68.9-12.2 68.9-6.5 0-13.2-12-19.1-22.7l.7 2.6c5.8 23 12.5 49.2 18.5 49.2 4.6 0 7.8-28.3 11.3-59.7 4.4-39.4 9.3-83.7 18.9-83.7 6.7.1 11 17.2 14.4 37.8zM364.6 144c-4.1 4.9-8.8 9.2-13.9 10.7-5.8 1.7-10 .9-13.7-.6 3.6 6.3 7.4 11.6 13.4 9.8 5.3-1.5 10-10.1 14.2-19.9z" data-color="2" class="colorFFF svgShape"></path></svg></g></svg>